<?xml version="1.0" encoding="UTF-8" standalone="no"?>
<!-- Created with Inkscape (http://www.inkscape.org/) -->
<svg
   xmlns:svg="http://www.w3.org/2000/svg"
   xmlns="http://www.w3.org/2000/svg"
   version="1.0"
   width="956.69287"
   height="271.77164"
   id="svg2">
  <defs
     id="defs4" />
  <g
     transform="translate(-850.62714,-262.3333)"
     id="layer1">
    <g
       transform="translate(35.433056,35.429393)"
       id="g2574">
      <path
         d="M 1244.3189,430.29644 C 1201.9689,430.29644 1178.314,402.28229 1176.455,366.84857 L 1240.7634,366.84857 C 1240.7634,366.84857 1217.0435,359.12865 1176.9502,352.07437 C 1181.009,319.38443 1204.7289,294.32512 1244.3189,294.32512 C 1291.4989,294.32512 1311.2899,324.76646 1311.2899,362.31078 C 1311.2899,399.8551 1290.4842,430.29644 1244.3189,430.29644 M 1244.3189,262.3333 C 1184.7188,262.3333 1143.0994,298.49762 1135.1278,345.96175 C 1121.758,344.39504 1107.3978,343.05562 1092.1122,342.1302 L 1092.1122,265.37744 L 1049.9976,265.37744 L 1049.9976,340.73396 C 1048.5608,340.72584 1047.1321,340.71773 1045.6871,340.71773 C 1012.153,340.71773 981.60608,342.93385 955.12617,346.09164 L 955.12617,265.37744 L 913.02783,265.37744 L 913.02783,352.32602 C 873.77068,359.29912 850.62714,366.84857 850.62714,366.84857 L 913.02783,366.84857 L 913.02783,459.6906 L 955.12617,459.6906 L 955.12617,366.84857 L 1049.9976,366.84857 L 1049.9976,459.6906 L 1092.1122,459.6906 L 1092.1122,366.84857 L 1133.8128,366.84857 C 1135.8828,420.44157 1178.9796,463.24615 1244.3189,463.24615 C 1317.3781,463.24615 1354.9224,418.26603 1354.9224,362.78973 C 1354.9224,307.31343 1315.852,262.3333 1244.3189,262.3333"
         id="path2410"
         style="fill:#0068b6;fill-opacity:1;fill-rule:nonzero;stroke:none" />
      <path
         d="M 1558.8794,266.39215 L 1509.6619,266.39215 L 1451.7503,348.45388 L 1393.4815,266.39215 L 1345.79,266.39215 L 1430.5144,379.85311 L 1430.5144,459.1873 L 1472.1175,459.1873 L 1472.1175,381.32241 L 1558.8794,266.39215 z"
         id="path2412"
         style="fill:#0068b6;fill-opacity:1;fill-rule:nonzero;stroke:none" />
      <path
         d="M 1599.1188,374.45485 L 1624.7383,313.61276 L 1651.5023,374.45485 L 1599.1188,374.45485 z M 1688.7625,459.1873 L 1736.4539,459.1873 L 1643.6038,266.39215 L 1605.5561,266.39215 L 1517.7796,459.1873 L 1563.4416,459.1873 L 1585.8789,405.9109 L 1665.3429,405.9109 L 1688.7625,459.1873 z"
         id="path2414"
         style="fill:#0068b6;fill-opacity:1;fill-rule:nonzero;stroke:none" />
    </g>
  </g>
</svg>
