<svg width="70" height="54" viewBox="0 0 70 54" fill="none" xmlns="http://www.w3.org/2000/svg">
<path d="M18.2669 0.178707C13.6458 1.05371 9.83131 4.6084 8.58717 9.20215C8.14967 10.7881 8.14967 13.6592 8.5735 15.2588C9.17506 17.501 10.2551 19.374 11.8821 21.001L12.8391 21.9443L11.5266 22.5869C9.51686 23.5576 7.8899 24.7334 6.05787 26.5654C3.06373 29.5596 1.3274 32.7314 0.384045 36.9561C0.0969359 38.2412 0.083264 38.7197 0.0285765 44.9678C-0.026111 51.5029 -0.026111 51.6396 0.247327 52.1865C0.438733 52.5557 0.725842 52.8428 1.08131 53.0205C1.61451 53.2939 1.80592 53.2939 34.9876 53.2939C68.1692 53.2939 68.3606 53.2939 68.8938 53.0205C69.2493 52.8428 69.5364 52.5557 69.7278 52.1865C70.0012 51.6396 70.0012 51.5029 69.9465 45.0498C69.8782 37.7627 69.8508 37.3936 68.9485 34.7139C68.0735 32.0889 66.679 29.6416 64.9016 27.6318C63.1243 25.6084 60.4856 23.6123 58.1887 22.5322L56.9993 21.9717L58.052 20.9189C59.2825 19.7021 59.9524 18.7314 60.6907 17.1592C61.4973 15.4092 61.7161 14.3018 61.7024 12.1416C61.6887 10.5557 61.634 10.1318 61.3196 9.06543C59.0501 1.57324 50.7512 -2.13184 43.8059 1.27246C40.6751 2.80371 38.2278 5.78418 37.2981 9.20215C36.8606 10.7881 36.8606 13.6592 37.2844 15.2588C37.886 17.501 38.9661 19.3877 40.5794 20.9873L41.509 21.917L39.8684 22.7783C38.1594 23.667 36.8196 24.583 35.5618 25.7178L34.8372 26.374L33.9895 25.5947C32.8821 24.583 30.845 23.2432 29.3547 22.5322L28.1516 21.958L29.1087 21.001C30.7356 19.374 31.8157 17.501 32.4172 15.2588C32.8411 13.6592 32.8411 10.7881 32.4036 9.20215C31.2415 4.93652 27.7825 1.47754 23.5715 0.383785C22.1223 0.000972932 19.7024 -0.0947302 18.2669 0.178707ZM22.2044 4.28027C25.8958 5.05957 28.6985 8.50488 28.6985 12.2783C28.6985 16.708 24.9251 20.4814 20.4954 20.4814C16.7219 20.4814 13.2766 17.6787 12.4973 13.9873C11.9094 11.1982 12.7161 8.55957 14.7395 6.52246C16.7766 4.48535 19.4153 3.69238 22.2044 4.28027ZM50.9153 4.28027C53.0481 4.73144 55.3723 6.33105 56.4387 8.09472C57.3411 9.59863 57.6008 10.5283 57.6008 12.2783C57.6008 14.0283 57.3411 14.958 56.4387 16.4619C55.0579 18.7451 51.9544 20.4814 49.2063 20.4814C45.4329 20.4814 41.9876 17.6787 41.2083 13.9873C40.6204 11.1982 41.427 8.55957 43.4505 6.52246C45.4876 4.48535 48.1262 3.69238 50.9153 4.28027ZM22.5051 24.7334C23.093 24.8154 23.5852 24.8975 23.6126 24.9111C23.6262 24.9385 23.134 25.7861 22.5188 26.8115L21.384 28.6846H20.4954H19.6067L18.4719 26.8115C17.8567 25.7861 17.3645 24.9248 17.3919 24.9111C17.4055 24.8838 17.8294 24.8154 18.3079 24.7471C19.5657 24.5693 21.261 24.5557 22.5051 24.7334ZM52.5559 24.9248C53.1575 25.0615 53.718 25.1982 53.8001 25.2529C53.8958 25.2939 53.0071 26.251 51.6126 27.6182L49.2473 29.9014L46.9505 27.5908C44.3391 24.9795 44.3938 25.1709 46.2669 24.8701C46.8001 24.7881 47.3743 24.6924 47.5657 24.665C48.304 24.542 51.5169 24.7061 52.5559 24.9248ZM15.3001 29.4775L16.2981 31.1592L15.3001 38.1729C14.7532 42.0557 14.343 45.3369 14.384 45.542C14.4387 45.7334 14.9719 46.6357 15.5735 47.5381L16.6672 49.1924H10.3645H4.06178L4.13014 43.8877C4.1985 38.2412 4.22584 37.9678 4.9778 35.7119C6.23561 31.9658 9.1067 28.5478 12.634 26.6064L13.304 26.2373L13.7962 27.0166C14.0696 27.4404 14.7395 28.5478 15.3001 29.4775ZM29.7922 27.4951C30.3528 27.8779 31.3782 28.7529 32.0618 29.4228C34.345 31.7061 35.7805 34.3037 36.5735 37.667C36.7512 38.4189 36.8059 39.6357 36.8606 43.8877L36.929 49.1924H30.6262H24.3235L25.4172 47.5381C26.0188 46.6357 26.552 45.7334 26.6067 45.542C26.6477 45.3369 26.2376 42.0557 25.6907 38.1729L24.6926 31.1455L26.1692 28.6982L27.6458 26.2373L28.2063 26.5244C28.5208 26.6885 29.2317 27.126 29.7922 27.4951ZM48.345 34.6182C48.9055 34.8916 49.5618 34.8916 50.1223 34.5908C50.3547 34.4678 52.2141 32.7314 54.2512 30.749C56.8352 28.2334 58.0247 27.1807 58.1751 27.2353C59.1594 27.6182 61.9348 30.2432 63.0012 31.8018C63.7669 32.9502 64.7102 34.8779 65.1204 36.2041C65.763 38.2412 65.886 39.5264 65.886 44.5713V49.1924H53.4583H41.0305L40.9622 43.751C40.8938 37.8584 40.8255 37.1338 39.9505 34.5635C39.6087 33.5107 38.3919 30.9404 37.8313 30.0244L37.5169 29.5186L37.8587 29.1631C38.0501 28.958 38.72 28.3975 39.3626 27.9189L40.5247 27.0439L44.2161 30.7217C46.2395 32.7451 48.0989 34.4951 48.345 34.6182ZM20.8098 33.1553C20.8508 33.374 21.2337 36.0264 21.6575 39.0752L22.4505 44.626L21.5208 46.0205C21.0149 46.7861 20.5501 47.415 20.4954 47.415C20.4407 47.415 19.9758 46.7861 19.47 46.0205L18.5403 44.626L19.3333 39.0752C20.2903 32.3213 20.1946 32.7861 20.4954 32.7861C20.6458 32.7861 20.7551 32.9229 20.8098 33.1553Z" fill="#131936"/>
<path d="M54.7842 37.1748C54.1963 37.4756 53.7178 38.2822 53.7178 38.9385C53.7178 39.6221 54.1963 40.4014 54.8115 40.7158C55.29 40.9619 55.6182 40.9893 57.8193 40.9893C60.0205 40.9893 60.3486 40.9619 60.8271 40.7158C61.4424 40.4014 61.9209 39.6221 61.9209 38.9385C61.9209 38.2549 61.4424 37.4756 60.8271 37.1611C60.3486 36.915 60.0342 36.8877 57.792 36.8877C55.5771 36.9014 55.2354 36.9287 54.7842 37.1748Z" fill="#131936"/>
</svg>
