<svg width="50" height="39" viewBox="0 0 50 39" fill="none" xmlns="http://www.w3.org/2000/svg">
<path d="M17.1585 0.865234C15.4202 1.17773 13.9651 2.11523 13.0276 3.54102L12.6663 4.07812L12.0217 3.49219C11.26 2.79883 10.0979 2.19336 9.12135 1.98828C8.21315 1.79297 5.73268 1.79297 4.82447 1.98828C3.08619 2.34961 1.48463 3.57031 0.693614 5.13281C-0.0192765 6.56836 -0.0192765 6.58789 0.0100203 13.3457L0.0393172 19.3418L0.312755 19.5762L0.586192 19.8105H24.9905H49.3948L49.6682 19.5762L49.9417 19.3418L49.971 13.375C50.0003 6.64648 49.9905 6.58789 49.2971 5.17188C48.5159 3.58008 46.9143 2.35938 45.1565 1.98828C44.2483 1.79297 41.7678 1.79297 40.8596 1.98828C39.8831 2.19336 38.721 2.79883 37.9592 3.49219L37.3147 4.07812L36.9534 3.54102C36.1917 2.37891 35.0784 1.53906 33.7405 1.08984C32.9885 0.835938 32.8616 0.826172 30.9963 0.826172C29.1311 0.826172 29.0042 0.835938 28.2522 1.08984C27.0608 1.49023 26.0061 2.23242 25.2542 3.20898L24.9905 3.55078L24.7268 3.20898C23.9749 2.23242 22.9104 1.48047 21.7288 1.09961C21.0256 0.865234 20.7522 0.835938 19.2776 0.806641C18.3694 0.796875 17.4124 0.816406 17.1585 0.865234ZM20.596 2.81836C22.1682 3.12109 23.4671 4.32227 23.8772 5.88477C23.9846 6.27539 24.0139 7.57422 24.0139 12.1152V17.8574H18.9846H13.9553V12.1152C13.9553 5.9043 13.9651 5.86523 14.4924 4.87891C15.0296 3.90234 16.2014 3.04297 17.2952 2.82812C17.8909 2.71094 19.9905 2.70117 20.596 2.81836ZM32.6077 2.81836C34.1799 3.12109 35.4788 4.32227 35.8889 5.88477C35.9963 6.27539 36.0256 7.57422 36.0256 12.1152V17.8574H30.9963H25.9671V12.1152C25.9671 5.9043 25.9768 5.86523 26.5042 4.87891C27.0413 3.90234 28.2131 3.04297 29.3069 2.82812C29.9026 2.71094 32.0022 2.70117 32.6077 2.81836ZM8.76979 3.90234C10.2639 4.24414 11.553 5.5332 11.8948 7.02734C11.9631 7.29102 12.0022 9.50781 12.0022 12.6523V17.8574H6.97291H1.94361V12.6523C1.94361 9.50781 1.98268 7.29102 2.05104 7.02734C2.38307 5.5625 3.58424 4.33203 5.06861 3.93164C5.60572 3.78516 8.17408 3.76562 8.76979 3.90234ZM44.8049 3.90234C46.2991 4.24414 47.5881 5.5332 47.9299 7.02734C47.9983 7.29102 48.0374 9.50781 48.0374 12.6523V17.8574H43.0081H37.9788V12.6523C37.9788 9.50781 38.0178 7.29102 38.0862 7.02734C38.4182 5.5625 39.6194 4.33203 41.1038 3.93164C41.6409 3.78516 44.2092 3.76562 44.8049 3.90234Z" fill="white"/>
<path d="M15.9961 7.59375L15.7129 7.87695V11.5586V15.2402L15.9961 15.5234L16.2793 15.8066H18.9844H21.6895L21.9727 15.5234L22.2559 15.2402V11.5586V7.87695L21.9727 7.59375L21.6895 7.31055H18.9844H16.2793L15.9961 7.59375ZM20.3027 11.5586V13.8535H18.9844H17.666V11.5586V9.26367H18.9844H20.3027V11.5586Z" fill="white"/>
<path d="M28.0078 7.59375L27.7246 7.87695V11.5586V15.2402L28.0078 15.5234L28.291 15.8066H30.9961H33.7012L33.9844 15.5234L34.2676 15.2402V11.5586V7.87695L33.9844 7.59375L33.7012 7.31055H30.9961H28.291L28.0078 7.59375ZM32.3145 11.5586V13.8535H30.9961H29.6777V11.5586V9.26367H30.9961H32.3145V11.5586Z" fill="white"/>
<path d="M3.98438 7.59375L3.70117 7.87695V11.5586V15.2402L3.98438 15.5234L4.26758 15.8066H6.97266H9.67773L9.96094 15.5234L10.2441 15.2402V11.5586V7.87695L9.96094 7.59375L9.67773 7.31055H6.97266H4.26758L3.98438 7.59375ZM8.29102 11.5586V13.8535H6.97266H5.6543V11.5586V9.26367H6.97266H8.29102V11.5586Z" fill="white"/>
<path d="M40.0195 7.59375L39.7363 7.87695V11.5586V15.2402L40.0195 15.5234L40.3027 15.8066H43.0078H45.7129L45.9961 15.5234L46.2793 15.2402V11.5586V7.87695L45.9961 7.59375L45.7129 7.31055H43.0078H40.3027L40.0195 7.59375ZM44.3262 11.5586V13.8535H43.0078H41.6895V11.5586V9.26367H43.0078H44.3262V11.5586Z" fill="white"/>
<path d="M0.420016 23.2773C-0.00967149 23.5703 -0.0194371 23.707 0.00985976 29.0488C0.0391566 33.9707 0.0489223 34.1367 0.254 34.752C0.908297 36.666 2.45127 38.1797 4.38486 38.7754C5.04892 38.9805 5.29306 39 7.02158 39C8.81845 38.9902 8.96494 38.9805 9.71689 38.7266C10.9083 38.3359 11.963 37.584 12.7149 36.6074L12.9786 36.2656L13.2423 36.6074C13.9942 37.584 15.0489 38.3262 16.2403 38.7266C16.9923 38.9805 17.1192 38.9902 18.9845 38.9902C20.8497 38.9902 20.9767 38.9805 21.7286 38.7266C22.92 38.3262 23.9747 37.584 24.7267 36.6074L24.9903 36.2656L25.254 36.6074C26.006 37.584 27.0606 38.3262 28.252 38.7266C29.004 38.9805 29.131 38.9902 30.9962 38.9902C32.8614 38.9902 32.9884 38.9805 33.7403 38.7266C34.9317 38.3262 35.9864 37.584 36.7384 36.6074L37.002 36.2656L37.2657 36.6074C38.0177 37.584 39.0724 38.3359 40.2638 38.7266C41.0157 38.9805 41.1622 38.9902 42.9591 39C44.6876 39 44.9317 38.9805 45.5958 38.7754C47.5294 38.1699 49.0724 36.6758 49.7267 34.752C49.9317 34.1367 49.9415 33.9707 49.9708 29.0879C49.9903 26.3242 49.9708 23.9609 49.9415 23.834C49.9122 23.707 49.7657 23.4922 49.629 23.3652L49.3751 23.1309H25.0001C3.77939 23.1309 0.595797 23.1504 0.420016 23.2773ZM12.002 29.2539C12.002 32.4863 11.9728 33.5508 11.8653 33.9316C11.4552 35.4941 10.1563 36.6953 8.58408 36.998C7.92002 37.125 6.02549 37.125 5.36142 36.998C3.78916 36.6953 2.49033 35.4941 2.08017 33.9316C1.97275 33.5508 1.94345 32.4863 1.94345 29.2539V25.084H6.97275H12.002V29.2539ZM24.0138 29.2539C24.0138 32.4863 23.9845 33.5508 23.877 33.9316C23.4669 35.4941 22.1681 36.6953 20.5958 36.998C19.9317 37.125 18.0372 37.125 17.3731 36.998C15.8009 36.6953 14.502 35.4941 14.0919 33.9316C13.9845 33.5508 13.9552 32.4863 13.9552 29.2539V25.084H18.9845H24.0138V29.2539ZM36.0255 29.2539C36.0255 32.4863 35.9962 33.5508 35.8888 33.9316C35.4786 35.4941 34.1798 36.6953 32.6075 36.998C31.9435 37.125 30.0489 37.125 29.3849 36.998C27.8126 36.6953 26.5138 35.4941 26.1036 33.9316C25.9962 33.5508 25.9669 32.4863 25.9669 29.2539V25.084H30.9962H36.0255V29.2539ZM48.0372 29.2539C48.0372 32.4863 48.0079 33.5508 47.9005 33.9316C47.4903 35.4941 46.1915 36.6953 44.6192 36.998C43.9552 37.125 42.0606 37.125 41.3966 36.998C39.8243 36.6953 38.5255 35.4941 38.1153 33.9316C38.0079 33.5508 37.9786 32.4863 37.9786 29.2539V25.084H43.0079H48.0372V29.2539Z" fill="white"/>
<path d="M3.98438 27.3203L3.70117 27.6035V30.7969V33.9902L3.98438 34.2734L4.26758 34.5566H6.97266H9.67773L9.96094 34.2734L10.2441 33.9902V30.7969V27.6035L9.96094 27.3203L9.67773 27.0371H6.97266H4.26758L3.98438 27.3203ZM8.29102 30.7969V32.6035H6.97266H5.6543V30.7969V28.9902H6.97266H8.29102V30.7969Z" fill="white"/>
<path d="M15.9961 27.3203L15.7129 27.6035V30.7969V33.9902L15.9961 34.2734L16.2793 34.5566H18.9844H21.6895L21.9727 34.2734L22.2559 33.9902V30.7969V27.6035L21.9727 27.3203L21.6895 27.0371H18.9844H16.2793L15.9961 27.3203ZM20.3027 30.7969V32.6035H18.9844H17.666V30.7969V28.9902H18.9844H20.3027V30.7969Z" fill="white"/>
<path d="M28.0078 27.3203L27.7246 27.6035V30.7969V33.9902L28.0078 34.2734L28.291 34.5566H30.9961H33.7012L33.9844 34.2734L34.2676 33.9902V30.7969V27.6035L33.9844 27.3203L33.7012 27.0371H30.9961H28.291L28.0078 27.3203ZM32.3145 30.7969V32.6035H30.9961H29.6777V30.7969V28.9902H30.9961H32.3145V30.7969Z" fill="white"/>
<path d="M40.0195 27.3203L39.7363 27.6035V30.7969V33.9902L40.0195 34.2734L40.3027 34.5566H43.0078H45.7129L45.9961 34.2734L46.2793 33.9902V30.7969V27.6035L45.9961 27.3203L45.7129 27.0371H43.0078H40.3027L40.0195 27.3203ZM44.3262 30.7969V32.6035H43.0078H41.6895V30.7969V28.9902H43.0078H44.3262V30.7969Z" fill="white"/>
</svg>
