<svg width="50" height="50" viewBox="0 0 50 50" fill="none" xmlns="http://www.w3.org/2000/svg">
<g clip-path="url(#clip0_112_82)">
<path d="M17.715 0.156246C15.3908 0.546871 13.0666 1.88476 11.5919 3.6914C9.2775 6.51367 8.34 10.2832 9.04312 13.9746C9.48257 16.3086 10.5666 18.1934 12.9005 20.6641C14.1408 21.9629 14.8439 22.7734 14.8439 22.8711C14.8439 22.9004 14.6388 22.9492 14.3849 22.9883C13.1935 23.1445 12.3244 23.7109 11.8361 24.6484C11.6115 25.0781 11.5724 25.2637 11.5724 26.0254C11.5724 27.0605 11.7677 27.5586 12.422 28.2129C13.174 28.9453 13.4962 29.0527 15.3127 29.082L16.8947 29.1211V30.1758V31.2305L15.7521 31.2695C14.6974 31.2988 14.5509 31.3281 14.0822 31.5918C13.4962 31.9043 13.0959 32.3242 12.7736 32.9395C12.588 33.2812 12.549 33.5059 12.549 34.2773C12.549 35.0488 12.588 35.2734 12.7736 35.6152C13.0959 36.2305 13.4962 36.6504 14.0822 36.9629C14.5509 37.2266 14.6974 37.2559 15.7521 37.2852L16.8947 37.3242V38.3789V39.4238L16.2794 39.4727C15.4884 39.541 14.8048 39.8926 14.2287 40.5273C13.4181 41.4258 13.2326 42.6953 13.7502 43.7988C14.2482 44.834 15.1466 45.459 16.3283 45.5664L16.9435 45.625L19.1505 47.8223L21.3576 50.0098L25.0294 49.9805L28.7111 49.9512L30.8791 47.793L33.0568 45.625L33.672 45.5664C34.8537 45.459 35.7521 44.834 36.2502 43.7988C36.7677 42.6953 36.5822 41.4258 35.7716 40.5273C35.1955 39.8926 34.5119 39.541 33.7209 39.4727L33.1056 39.4238V38.3789V37.3242L34.258 37.2852C35.3029 37.2559 35.4494 37.2266 35.9181 36.9629C36.5041 36.6504 36.9044 36.2305 37.2267 35.6152C37.4123 35.2734 37.4513 35.0488 37.4513 34.2773C37.4513 33.5059 37.4123 33.2812 37.2267 32.9395C36.9044 32.3242 36.5041 31.9043 35.9181 31.5918C35.4494 31.3281 35.3029 31.2988 34.258 31.2695L33.1056 31.2305V30.1758V29.1211L34.6974 29.082C36.4943 29.043 36.8654 28.9355 37.588 28.2031C38.2326 27.5684 38.4279 27.0508 38.4279 26.0254C38.4279 25.2344 38.3986 25.0977 38.1349 24.6191C37.6076 23.6621 36.8068 23.1445 35.6252 22.9883C35.3615 22.9492 35.1564 22.9004 35.1564 22.8711C35.1564 22.7734 35.8595 21.9629 37.0998 20.6641C39.4142 18.2129 40.4103 16.5039 40.9377 14.0625C41.2306 12.7344 41.2306 10.4004 40.9279 9.01367C40.0978 5.06836 37.5978 1.96289 34.2482 0.703121C32.8127 0.166012 32.1681 0.0585899 30.4689 0.0585899C29.1505 0.0683556 28.8283 0.0976524 27.9787 0.322262C27.4416 0.468746 26.5529 0.800777 25.9962 1.07421L24.9904 1.55273L24.2384 1.17187C22.1779 0.136715 19.9123 -0.214848 17.715 0.156246ZM20.7033 2.05078C21.6017 2.19726 22.4611 2.48046 23.5353 2.99804C24.8048 3.61328 25.1955 3.61328 26.465 2.99804C28.506 2.02148 30.049 1.76757 31.9826 2.09961C33.6818 2.40234 35.1955 3.18359 36.3966 4.41406C37.2365 5.2539 37.6369 5.83007 38.1935 6.98242C39.4728 9.64843 39.5802 12.832 38.4669 15.4297C37.9103 16.748 37.1486 17.7734 35.2541 19.7754C34.0334 21.0742 33.3595 21.9238 33.047 22.5781L32.8712 22.9492H25.0002H17.1291L16.9533 22.5781C16.6408 21.9238 15.9669 21.0742 14.7462 19.7754C12.8517 17.7734 12.09 16.748 11.5334 15.4297C10.4201 12.832 10.5275 9.64843 11.8068 6.98242C12.3634 5.83007 12.7638 5.2539 13.6037 4.41406C15.4298 2.54882 18.1349 1.65039 20.7033 2.05078ZM35.8693 25.0391C36.2892 25.2148 36.5236 25.5859 36.5236 26.084C36.5236 26.4062 36.465 26.543 36.1916 26.8164L35.8595 27.1484H25.0002H14.1408L13.8087 26.8164C13.5353 26.543 13.4767 26.4062 13.4767 26.084C13.4767 25.5957 13.7013 25.2148 14.1115 25.0391C14.5509 24.8437 35.4103 24.8437 35.8693 25.0391ZM31.133 30.1465L31.1037 31.2012H25.0002H18.8966L18.8673 30.1465L18.838 29.1016H25.0002H31.1623L31.133 30.1465ZM35.215 33.5352C35.5763 33.8965 35.6544 34.3359 35.4298 34.8145C35.1759 35.3711 35.6154 35.3516 25.0099 35.3516C17.6466 35.3516 15.1759 35.3223 14.9904 35.2344C14.6681 35.0879 14.4533 34.6875 14.4533 34.2187C14.4533 33.9453 14.5314 33.7891 14.7853 33.5352L15.1173 33.2031H25.0002H34.883L35.215 33.5352ZM31.133 38.3984L31.1623 39.4531H25.0002H18.8478V38.4473C18.8478 37.8906 18.8771 37.4023 18.9162 37.373C18.9455 37.334 21.7091 37.3145 25.0392 37.3242L31.1037 37.3535L31.133 38.3984ZM34.2873 41.7773C34.6193 42.1484 34.6779 42.7734 34.4142 43.1543C34.0529 43.6621 34.258 43.6523 25.0002 43.6523C15.7423 43.6523 15.9474 43.6621 15.5861 43.1543C15.2345 42.6465 15.4884 41.7285 16.0548 41.5039C16.1623 41.4551 20.2541 41.4258 25.1271 41.4355L34.0041 41.4551L34.2873 41.7773ZM29.1017 46.8262L27.881 48.0469H25.0002H22.1193L20.8986 46.8262L19.6779 45.6055H25.0002H30.3224L29.1017 46.8262Z" fill="white"/>
<path d="M21.0355 5.06836C20.6937 5.27343 20.5082 5.69336 20.5766 6.08398C20.6449 6.42578 21.4945 7.24609 22.393 7.84179C24.1019 8.97461 25.9379 8.97461 27.6273 7.83203C28.5355 7.22656 29.3558 6.41601 29.4242 6.08398C29.5414 5.43945 28.9262 4.79492 28.3109 4.93164C28.1449 4.9707 27.725 5.26367 27.3637 5.57617C25.6449 7.10937 24.3461 7.11914 22.6859 5.61523C22.1391 5.11718 21.7387 4.88281 21.4555 4.88281C21.3871 4.88281 21.2016 4.9707 21.0355 5.06836Z" fill="white"/>
</g>
<defs>
<clipPath id="clip0_112_82">
<rect width="50" height="50" fill="white"/>
</clipPath>
</defs>
</svg>
