<svg width="50" height="46" viewBox="0 0 50 46" fill="none" xmlns="http://www.w3.org/2000/svg">
<path d="M3.28125 0.990234C3.04688 1.26367 3.02734 1.36133 3.02734 2.26953C3.02734 3.2168 3.03711 3.24609 3.31055 3.5293C3.52539 3.73438 3.69141 3.8125 3.95508 3.8125C4.7168 3.8125 4.98047 3.41211 4.98047 2.25C4.98047 1.06836 4.72656 0.6875 3.92578 0.6875C3.60352 0.6875 3.48633 0.746094 3.28125 0.990234Z" fill="white"/>
<path d="M41.5137 2.70898C41.2891 2.91406 41.0156 3.49023 40.4297 5.01367L39.6289 7.04492L39.0234 6.46875C37.4902 5.0332 35.3516 4.03711 33.1152 3.70508C32.1191 3.56836 30.0977 3.63672 29.1211 3.85156C28.418 4.00781 27.3145 4.39844 26.0742 4.94531C25.4883 5.20898 25.3516 5.22852 24.2188 5.22852H22.998L21.8555 4.71094C20.2539 3.98828 19.1113 3.71484 17.4707 3.64648C15.8984 3.57812 14.8926 3.70508 13.5742 4.125C9.41406 5.45312 6.52344 8.88086 5.49805 13.6758C5.24414 14.8672 5.25391 17.7676 5.50781 18.998C5.87891 20.7656 6.5918 22.416 7.59766 23.8223C8.22266 24.7012 8.75 25.3066 10.3418 26.9863C10.9863 27.6797 11.5234 28.2852 11.5234 28.334C11.5234 28.3828 11.4648 28.4219 11.3867 28.4219C10.9961 28.4219 10.7324 28.9102 9.72656 31.4883C9.16016 32.9336 8.66211 34.1543 8.61328 34.2031C8.56445 34.252 7.34375 34.75 5.89844 35.3164C3.02734 36.4395 2.83203 36.5566 2.83203 37.2109C2.83203 37.8652 3.02734 37.9824 5.9082 39.1152C7.36328 39.6816 8.57422 40.1797 8.61328 40.2188C8.65234 40.2578 9.15039 41.4785 9.7168 42.9238C10.8496 45.7949 10.9766 46 11.6113 46C12.2754 46 12.373 45.8535 13.5254 42.9238C14.2188 41.166 14.6484 40.1895 14.7656 40.1309C14.9219 40.0527 15.0684 40.1504 15.6738 40.7656C16.8652 41.957 18.3496 42.8262 19.9219 43.2559C20.9473 43.5488 21.4551 43.5293 21.7969 43.1973L22.0703 42.9336V36.957C22.0703 33.1582 22.1094 30.7949 22.168 30.4922C22.2949 29.9258 22.7246 29.3691 23.252 29.1055C23.6914 28.8809 24.4727 28.8516 24.9316 29.0371C25.3613 29.2227 25.9375 29.8867 26.0645 30.3457C26.1328 30.5898 26.1719 32.8164 26.1719 36.8008V42.8945L26.4551 43.1777C26.8262 43.5391 27.3047 43.5488 28.457 43.2168C31.8359 42.2402 34.375 39.5156 35.3125 35.8535C35.5566 34.8867 35.7422 32.9922 35.7422 31.332C35.7422 29.7305 36.0742 29.1445 38.3789 26.7129C41.377 23.5586 42.4805 21.5469 42.9688 18.4121C43.125 17.3965 43.2617 16.9668 43.9844 15.1309L44.834 13.0215L47.1484 12.1133C49.7949 11.0879 50.0586 10.9121 49.9707 10.2285C49.9414 10.0137 49.834 9.75977 49.7363 9.66211C49.6387 9.55469 48.5059 9.06641 47.2363 8.55859C45.957 8.06055 44.873 7.61133 44.834 7.5625C44.7852 7.51367 44.3457 6.42969 43.8477 5.15039C43.1934 3.49023 42.8613 2.76758 42.6953 2.63086C42.3438 2.35742 41.8555 2.38672 41.5137 2.70898ZM19.375 5.86328C19.8047 5.9707 20.5664 6.26367 21.084 6.49805C22.2852 7.04492 23.0566 7.23047 24.2383 7.23047C25.4785 7.23047 25.9961 7.11328 27.3047 6.53711C28.7695 5.89258 29.6875 5.6582 31.0742 5.59961C33.2812 5.49219 35.0684 6 36.875 7.24023C37.2559 7.50391 37.666 7.82617 37.7832 7.95312L37.998 8.17773L36.6504 8.69531C34.375 9.57422 34.2383 9.67188 34.2578 10.3652C34.2773 10.9512 34.4141 11.0391 36.9727 12.0645L39.4043 13.041L40.2637 15.1895C41.2402 17.6309 41.2305 17.5723 40.7715 19.3984C40.2637 21.3906 39.248 22.9629 36.7676 25.5898C35.2832 27.1621 34.4434 28.2852 34.0723 29.2031C33.8867 29.6719 33.8477 30.0234 33.7793 31.8887C33.6816 34.2129 33.5449 35.1406 33.0957 36.3613C32.6562 37.582 32.0996 38.4316 31.1035 39.418C30.332 40.1992 30.0781 40.3848 29.1895 40.8145L28.1738 41.3125L28.125 35.6777C28.0762 30.2285 28.0664 30.0137 27.8711 29.5352C27.4219 28.4512 26.7773 27.7676 25.7129 27.2695C25.2051 27.0352 25.0293 27.0059 24.1211 27.0059C23.2129 27.0059 23.0273 27.0352 22.5391 27.2695C21.8945 27.5723 21.084 28.2949 20.7422 28.8613C20.2051 29.7891 20.1855 29.9062 20.127 33.2656L20.0684 36.3906L17.4316 35.3555C15.166 34.457 14.7852 34.2715 14.7363 34.0762C14.6973 33.9492 14.6582 33.0898 14.6582 32.1816C14.6387 29.0762 14.3359 28.4121 11.5918 25.4727C9.57031 23.2852 8.96484 22.5039 8.31055 21.2246C7.08008 18.7734 6.88477 15.3555 7.82227 12.5625C9.05273 8.88086 11.6699 6.44922 15.1953 5.7168C16.1816 5.51172 18.3691 5.58984 19.375 5.86328ZM42.666 7.45508C42.9297 8.13867 43.2129 8.8125 43.3008 8.92969C43.3984 9.08594 43.8867 9.33984 44.8633 9.73047C45.6445 10.0332 46.2695 10.3164 46.2402 10.3359C46.2207 10.3652 45.5957 10.6191 44.8535 10.9121C44.1113 11.2051 43.457 11.4883 43.3887 11.5371C43.3301 11.5957 43.0176 12.2695 42.7148 13.0508C42.4023 13.8223 42.1191 14.4277 42.0801 14.3887C42.041 14.3398 41.7773 13.7441 41.5137 13.0508C41.2402 12.3574 40.9473 11.7031 40.8594 11.6055C40.7715 11.5176 40.0586 11.1855 39.2871 10.8828L37.8711 10.3262L39.2383 9.7793C39.9902 9.47656 40.6934 9.1543 40.8008 9.05664C40.9668 8.90039 41.4062 7.92383 42.002 6.36133C42.0508 6.23438 42.1094 6.14648 42.1387 6.16602C42.1582 6.19531 42.3926 6.77148 42.666 7.45508ZM12.3438 33.8418C12.7148 34.7793 13.0957 35.6094 13.1738 35.6875C13.2617 35.7656 14.082 36.127 14.9902 36.4883C15.9082 36.8496 16.6699 37.1621 16.6895 37.1816C16.7773 37.25 16.5918 37.3281 15.7031 37.6504C14.5117 38.0801 13.3691 38.5684 13.1738 38.7344C13.0859 38.8125 12.7148 39.6426 12.3438 40.5801C11.9727 41.5176 11.6504 42.2891 11.6211 42.2891C11.5918 42.2891 11.2695 41.5176 10.8984 40.5898C10.5273 39.6523 10.1562 38.8223 10.0781 38.7344C10 38.6562 9.16992 38.2949 8.24219 37.9238C7.30469 37.5625 6.54297 37.2402 6.54297 37.2109C6.54297 37.1816 7.27539 36.8789 8.17383 36.5273C9.0625 36.1758 9.89258 35.8145 10.0098 35.7266C10.1465 35.6191 10.4785 34.9062 10.8984 33.8418C11.2695 32.9043 11.5918 32.1328 11.6211 32.1328C11.6504 32.1328 11.9727 32.9043 12.3438 33.8418ZM20.0977 40.4824L20.0684 41.3125L19.0918 40.834C18.457 40.5215 17.9102 40.1602 17.5293 39.8184L16.9434 39.2715L17.334 39.1152C17.5488 39.0273 18.252 38.7539 18.8965 38.5L20.0684 38.0312L20.0977 38.8418C20.1074 39.291 20.1074 40.0234 20.0977 40.4824Z" fill="white"/>
<path d="M18.8574 9.43737C18.6035 9.65221 18.5547 9.75964 18.5547 10.1405C18.5547 10.5507 18.5938 10.619 19.0234 11.0194C20.8008 12.6796 23.3984 13.4608 25.7617 13.0507C27.4512 12.7577 29.1211 11.9178 30.0781 10.8827C30.459 10.4628 30.4883 10.4042 30.4395 10.0233C30.3711 9.49596 30.0098 9.18346 29.4922 9.18346C29.1797 9.18346 29.0234 9.27136 28.5449 9.67175C26.8945 11.1073 24.6094 11.5663 22.5781 10.8827C21.6895 10.5897 21.2207 10.3163 20.459 9.67175C19.7656 9.08581 19.3457 9.01745 18.8574 9.43737Z" fill="white"/>
<path d="M0.625 3.70508C0.332031 3.83203 0 4.28125 0 4.56445C0 4.87695 0.253906 5.3457 0.478516 5.47266C0.585938 5.52148 1.09375 5.57031 1.61133 5.57031C2.66602 5.57031 2.86133 5.50195 3.08594 5.0625C3.28125 4.68164 3.20312 4.21289 2.87109 3.90039C2.64648 3.69531 2.51953 3.66602 1.72852 3.64648C1.23047 3.62695 0.732422 3.65625 0.625 3.70508Z" fill="white"/>
<path d="M5.31293 3.77344C4.72699 4.05664 4.60004 4.81836 5.06879 5.28711C5.34223 5.56055 5.39106 5.57031 6.28949 5.57031C7.36371 5.57031 7.64691 5.47266 7.86176 5.01367C8.0766 4.57422 7.92035 4.06641 7.4809 3.80273C7.09027 3.56836 5.77191 3.54883 5.31293 3.77344Z" fill="white"/>
<path d="M3.55469 5.52133C3.125 5.74594 3.02734 6.02915 3.02734 7.08383C3.02734 7.89438 3.05664 8.0311 3.25195 8.25571C3.38867 8.42172 3.60352 8.52915 3.86719 8.56821C4.21875 8.61704 4.31641 8.57797 4.59961 8.32407L4.93164 8.0311V6.99594C4.93164 6.02915 4.92188 5.95102 4.6875 5.71665C4.36523 5.40415 3.93555 5.32602 3.55469 5.52133Z" fill="white"/>
</svg>
