<svg width="50" height="50" viewBox="0 0 50 50" fill="none" xmlns="http://www.w3.org/2000/svg">
<path d="M30.7324 9.13086C29.0918 9.44336 27.8418 10.1172 26.6113 11.3672C25.3613 12.6367 24.5605 14.1504 24.2188 15.8984C24.1504 16.2305 24.0723 16.5039 24.0527 16.5039C24.0332 16.5039 23.8672 16.3965 23.7012 16.2695C22.8711 15.6543 21.6602 15.2051 20.3711 15.0391C19.3457 14.9121 18.9062 14.6387 18.2129 13.7207C14.9707 9.41407 8.74023 10.1465 6.06445 15.1563C5.39062 16.3965 5.22461 17.1289 5.22461 18.7012C5.23438 19.8926 5.27344 20.2441 5.54688 21.416C5.9668 23.2031 5.95703 23.5742 5.49805 24.4141L5.13672 25.0781L4.49219 25.2344C2.31445 25.7617 0.595703 27.5 0.146484 29.6484C0.0292969 30.1855 0 31.3281 0 35.332V40.3516L0.332031 40.6836L0.664062 41.0156H25H49.3359L49.668 40.6836L50 40.3516V35.332C50 29.7363 49.9707 29.4922 49.3555 28.2227C48.8965 27.3047 47.8809 26.2598 46.9727 25.791C46.6211 25.6055 46.3184 25.4492 46.2988 25.4297C46.2793 25.4102 46.6309 25 47.0801 24.5117C48.0957 23.3984 48.6426 22.6367 49.1309 21.6309C50.1074 19.6191 50.2539 17.1582 49.541 14.8926C48.0078 10.0195 43.0664 7.71485 38.5254 9.75586C37.8516 10.0586 37.6465 10.1074 37.0117 10.0977C36.3867 10.0977 36.1719 10.0488 35.5469 9.77539C34.0039 9.07227 32.2559 8.84766 30.7324 9.13086ZM33.1641 11.0449C33.4766 11.1035 34.248 11.3574 34.8633 11.6016C35.9473 12.0313 36.0156 12.0508 37.0117 12.0508C38.0078 12.0508 38.0762 12.041 39.1699 11.6016C40.5273 11.0547 41.3672 10.8887 42.373 10.9766C43.8379 11.1133 44.9805 11.6602 46.0547 12.7441C46.8359 13.5254 47.5098 14.7461 47.8223 15.918C48.0859 16.9043 48.0664 18.877 47.7734 19.8242C47.3633 21.1328 46.9531 21.7578 45.2637 23.584C43.3105 25.7031 43.1738 26.0059 43.0664 28.3691C42.959 30.6445 42.627 31.6211 41.6016 32.7051C41.1035 33.2129 40.3027 33.7891 40.0684 33.7891C39.9707 33.7891 39.9414 33.0957 39.9414 30.2344V26.6797L39.6191 26.0645C38.5059 23.9063 35.4688 23.9258 34.3848 26.0938L34.082 26.6895V30.2441C34.082 32.6953 34.0527 33.7891 33.9746 33.7891C33.75 33.7891 32.9492 33.2324 32.4707 32.7539C31.416 31.6797 31.0645 30.6641 30.957 28.3691C30.8496 26.0059 30.7129 25.7031 28.7598 23.584C27.0703 21.7578 26.6602 21.1328 26.25 19.8242C26.0645 19.2188 26.0254 18.8672 26.0254 17.8223C26.0254 16.3184 26.1719 15.6836 26.7969 14.4043C28.0371 11.8945 30.5566 10.5664 33.1641 11.0449ZM14.0625 13.0566C15.0977 13.3398 16.0059 14.0039 16.7676 15.0488C17.5586 16.123 18.4668 16.6992 19.6875 16.8945C21.543 17.1973 22.2754 17.5 23.1348 18.3691C24.3945 19.6191 24.8438 21.2988 24.4531 23.2227C24.1797 24.5801 23.3789 25.9082 22.3633 26.6992C21.6895 27.2168 20.8789 27.5781 19.3945 28.0273C17.1484 28.7012 16.6406 29.043 15.7422 30.5469C14.873 32.0117 14.0332 32.7539 12.8613 33.125C12.3047 33.291 11.5234 33.3594 11.5234 33.2422C11.5234 33.2031 12.1191 32.1484 12.8516 30.8887C13.584 29.6387 14.248 28.3984 14.3262 28.1445C14.8438 26.4648 13.3203 24.668 11.5234 24.834C10.293 24.9414 9.91211 25.332 8.23242 28.2422C7.49023 29.5215 6.85547 30.5664 6.82617 30.5664C6.69922 30.5664 6.32812 29.541 6.23047 28.9355C6.15234 28.4473 6.17188 28.1445 6.28906 27.5586C6.43555 26.8262 6.5625 26.5234 7.37305 25.0098C7.72461 24.3555 7.76367 24.209 7.79297 23.4473C7.82227 22.7539 7.76367 22.3242 7.4707 20.9961C6.9043 18.4668 7.02148 17.3145 8.01758 15.6641C8.67188 14.5801 9.98047 13.4863 11.0547 13.125C12.0898 12.7832 12.998 12.7637 14.0625 13.0566ZM26.9336 24.5117L27.4512 25.0977H26.709C26.0352 25.0977 25.9668 25.0781 26.0254 24.9219C26.0547 24.834 26.1328 24.5703 26.2012 24.3359C26.2598 24.1113 26.3379 23.9258 26.3672 23.9258C26.3965 23.9258 26.6504 24.1895 26.9336 24.5117ZM37.4512 26.5137C37.6172 26.6016 37.8125 26.7676 37.8711 26.8848C37.9492 27.0313 37.998 28.3887 38.0078 31.25C38.0371 35.0684 38.0469 35.4297 38.2129 35.6738C38.4961 36.1035 38.8086 36.1719 39.6289 35.9961C41.582 35.5859 43.3301 34.1699 44.2383 32.2754C44.7852 31.123 44.9316 30.4395 44.9902 28.7598C45.0195 27.9492 45.0781 27.2559 45.1172 27.207C45.2637 27.0605 46.4551 27.6953 46.9238 28.1738C47.1777 28.418 47.5195 28.916 47.6855 29.2773L47.998 29.9316L48.0273 34.4922L48.0566 39.0625H25H1.94336L1.97266 34.4922L2.00195 29.9316L2.31445 29.2773C2.65625 28.5547 3.29102 27.8516 3.87695 27.5586L4.24805 27.3633V28.4082C4.25781 29.9219 4.61914 30.9766 5.53711 32.1484C6.30859 33.125 7.08984 33.4668 7.60742 33.0273C7.71484 32.9395 8.55469 31.5625 9.47266 29.9805C10.3906 28.3984 11.2305 27.0215 11.3477 26.9238C11.7383 26.5918 12.3242 26.8164 12.4512 27.3438C12.5 27.5391 12.1484 28.2129 10.7422 30.625C8.82812 33.9258 8.75977 34.1113 9.21875 34.5996C9.59961 35.0098 10.4199 35.2051 11.7676 35.2051C12.7832 35.1953 13.0371 35.166 13.6426 34.9414C15.1465 34.4043 16.3672 33.3203 17.373 31.6211C18.0273 30.5371 18.1934 30.4199 20.0488 29.873C22.1191 29.248 23.584 28.4375 24.4434 27.4316L24.7754 27.0508H26.8359C29.2578 27.0508 28.9746 26.8164 29.043 28.8574C29.0918 30.4297 29.248 31.1426 29.7852 32.2754C30.6934 34.1699 32.4414 35.5859 34.3945 35.9961C35.2148 36.1719 35.5273 36.1035 35.8105 35.6738C35.9668 35.4297 35.9863 35.0391 36.0352 31.2012C36.0645 28.6719 36.123 26.9336 36.1816 26.8359C36.2891 26.6602 36.7871 26.3672 36.9922 26.3672C37.0703 26.3672 37.2754 26.4355 37.4512 26.5137Z" fill="white"/>
<path d="M33.3398 12.6855C32.998 12.832 32.7148 13.2715 32.7148 13.6523C32.7148 13.9355 32.793 14.082 33.1836 14.4434C33.7402 14.9902 34.7852 15.5469 35.6445 15.7715C36.123 15.8984 36.5332 15.9277 37.3047 15.8887C38.4766 15.8398 39.1211 15.6348 40.1074 15.0195C41.3086 14.2578 41.6016 13.6133 41.0254 12.9687C40.6152 12.5098 40.127 12.5195 39.5508 13.0176C39.3066 13.2227 38.877 13.5059 38.5742 13.6523C38.0957 13.8867 37.9297 13.916 37.0117 13.916C36.0938 13.916 35.9277 13.8867 35.4492 13.6523C35.1465 13.5059 34.7266 13.2324 34.502 13.0371C34.0723 12.666 33.6719 12.5488 33.3398 12.6855Z" fill="white"/>
<path d="M13.6617 16.4942C13.2516 16.9043 13.2711 17.4317 13.7301 18.3594C14.3453 19.5899 15.5953 20.6055 16.9332 20.9571C17.5387 21.1231 18.7008 21.1328 19.2965 20.9864C19.5504 20.918 19.8141 20.7715 19.9215 20.625C20.1949 20.2832 20.1754 19.7071 19.8824 19.3653C19.6481 19.0918 19.6383 19.0918 18.4859 19.0918C17.4898 19.0918 17.275 19.0625 16.8941 18.877C16.2301 18.545 15.732 17.9981 15.3707 17.2266C15.1949 16.836 14.9508 16.4551 14.8336 16.3672C14.4723 16.1133 13.9938 16.1719 13.6617 16.4942Z" fill="white"/>
</svg>
