<svg width="64" height="58" viewBox="0 0 64 58" fill="none" xmlns="http://www.w3.org/2000/svg">
<path d="M4.17738 0.835972C3.16566 1.1641 2.16761 1.91605 1.55238 2.79105C0.636364 4.14457 0.691052 2.33988 0.691052 29C0.691052 55.6602 0.636364 53.8555 1.55238 55.209C2.18129 56.1114 3.17933 56.8496 4.24574 57.1641C5.12074 57.4375 5.48988 57.4375 31.0426 57.4102C59.7399 57.3555 57.1559 57.4512 59.0836 56.4805C60.2594 55.8789 61.8727 54.252 62.4606 53.0625C63.3492 51.2442 63.3219 51.8868 63.2809 37.0528L63.2399 23.5996L62.8707 22.8204C62.0778 21.125 62.2418 21.2207 50.6344 15.4375L40.1071 10.2012L40.0387 7.39848C39.984 4.91019 39.943 4.51371 39.6696 3.81644C39.2457 2.72269 38.2203 1.64261 37.0856 1.08207L36.1696 0.630894L20.5836 0.60355C5.50355 0.576206 4.97035 0.589878 4.17738 0.835972ZM35.4586 5.23832C35.609 5.49808 35.6364 9.62699 35.5817 29.3008L35.527 53.0625H32.6696H29.8258L29.7848 47.0743C29.7438 41.25 29.7301 41.086 29.443 40.5528C29.0328 39.7871 28.3493 39.1309 27.6246 38.7891C27.0231 38.5157 26.818 38.502 20.3102 38.502H13.611L12.9684 38.8164C12.6129 38.9942 12.0934 39.3907 11.82 39.6914C10.8629 40.7578 10.8766 40.5801 10.8356 47.1426L10.7946 53.0625H8.14222C5.91371 53.0625 5.46254 53.0215 5.2848 52.8438C5.0934 52.6524 5.06605 50.3008 5.06605 29C5.06605 7.69926 5.0934 5.34769 5.2848 5.15629C5.47621 4.96488 7.0348 4.93754 20.3786 4.93754H35.2809L35.4586 5.23832ZM58.7008 24.461C58.9196 24.6524 58.9332 25.4453 58.9332 37.4629V50.2598L58.6051 50.9571C58.4274 51.3262 58.0309 51.8594 57.7028 52.1465C56.609 53.0762 56.7731 53.0625 47.9684 53.0625H40.066V34.0586V15.0547L49.2672 19.6485C54.3121 22.1778 58.5641 24.3379 58.7008 24.461ZM25.4371 47.9356V53.0625H20.3102H15.1832V48.0313C15.1832 45.2559 15.2243 42.9453 15.2789 42.9043C15.32 42.8496 17.6305 42.8086 20.4059 42.8086H25.4371V47.9356Z" fill="#131936"/>
<path d="M11.8879 11.1309C11.218 11.5684 10.7532 12.5664 10.8762 13.291C10.9993 14.0156 11.7512 14.8633 12.4211 15.0547C13.0637 15.2324 15.9348 15.2324 16.5364 15.0547C17.179 14.877 17.8899 14.1523 18.0676 13.5234C18.3137 12.5938 17.8079 11.459 16.9602 11.0215C16.6594 10.8711 16.0442 10.8164 14.4583 10.8164C12.5032 10.8164 12.3254 10.8438 11.8879 11.1309Z" fill="#131936"/>
<path d="M23.6867 11.0488C23.0168 11.377 22.6613 11.9785 22.5929 12.8535C22.5246 13.8106 22.8937 14.4258 23.7961 14.8906C24.3703 15.1777 24.548 15.2051 26.3253 15.1641C28.0617 15.1231 28.2941 15.0957 28.7589 14.7949C29.4562 14.3711 29.8664 13.5508 29.7707 12.7578C29.7023 12.0742 29.3742 11.5684 28.7179 11.1172C28.2941 10.8438 28.1164 10.8164 26.2023 10.8164C24.5753 10.8164 24.0421 10.8711 23.6867 11.0488Z" fill="#131936"/>
<path d="M11.8879 19.8809C11.218 20.3184 10.7532 21.3164 10.8762 22.041C10.9993 22.7656 11.7512 23.6133 12.4211 23.8047C13.0637 23.9824 15.9348 23.9824 16.5364 23.8047C17.179 23.627 17.8899 22.9023 18.0676 22.2734C18.3137 21.3438 17.8079 20.209 16.9602 19.7715C16.6594 19.6211 16.0442 19.5664 14.4583 19.5664C12.5032 19.5664 12.3254 19.5938 11.8879 19.8809Z" fill="#131936"/>
<path d="M23.6867 19.7988C23.0168 20.127 22.6613 20.7285 22.5929 21.6035C22.5246 22.5606 22.8937 23.1758 23.7961 23.6406C24.3703 23.9277 24.548 23.9551 26.3253 23.9141C28.0617 23.8731 28.2941 23.8457 28.7589 23.5449C29.4562 23.1211 29.8664 22.3008 29.7707 21.5078C29.7023 20.8242 29.3742 20.3184 28.7179 19.8672C28.2941 19.5938 28.1164 19.5664 26.2023 19.5664C24.5753 19.5664 24.0421 19.6211 23.6867 19.7988Z" fill="#131936"/>
<path d="M11.8879 28.6309C11.218 29.0684 10.7532 30.0664 10.8762 30.791C10.9993 31.5156 11.7512 32.3633 12.4211 32.5547C13.0637 32.7324 15.9348 32.7324 16.5364 32.5547C17.179 32.377 17.8899 31.6523 18.0676 31.0234C18.3137 30.0938 17.8079 28.959 16.9602 28.5215C16.6594 28.3711 16.0442 28.3164 14.4583 28.3164C12.5032 28.3164 12.3254 28.3438 11.8879 28.6309Z" fill="#131936"/>
<path d="M23.6867 28.5488C23.0168 28.877 22.6613 29.4785 22.5929 30.3535C22.5246 31.3106 22.8937 31.9258 23.7961 32.3906C24.3703 32.6777 24.548 32.7051 26.3253 32.6641C28.0617 32.6231 28.2941 32.5957 28.7589 32.2949C29.4562 31.8711 29.8664 31.0508 29.7707 30.2578C29.7023 29.5742 29.3742 29.0684 28.7179 28.6172C28.2941 28.3438 28.1164 28.3164 26.2023 28.3164C24.5753 28.3164 24.0421 28.3711 23.6867 28.5488Z" fill="#131936"/>
<path d="M45.8079 26.9629C45.6165 27.0449 45.3157 27.2363 45.1517 27.4004C44.0852 28.3848 44.222 29.9297 45.4388 30.832C45.8079 31.1055 45.9856 31.1191 49.4993 31.1191C53.013 31.1191 53.1907 31.1055 53.5599 30.832C54.8997 29.834 54.8997 28.166 53.5599 27.168C53.1907 26.8945 52.9856 26.8809 49.6634 26.8535C47.5169 26.8398 46.013 26.8809 45.8079 26.9629Z" fill="#131936"/>
<path d="M45.8079 35.7129C45.6165 35.7949 45.3157 35.9863 45.1517 36.1504C44.0852 37.1348 44.222 38.6797 45.4388 39.582C45.8079 39.8555 45.9856 39.8691 49.4993 39.8691C53.013 39.8691 53.1907 39.8555 53.5599 39.582C54.8997 38.584 54.8997 36.916 53.5599 35.918C53.1907 35.6445 52.9856 35.6309 49.6634 35.6035C47.5169 35.5898 46.013 35.6309 45.8079 35.7129Z" fill="#131936"/>
<path d="M45.8079 44.4629C45.6165 44.5449 45.3157 44.7363 45.1517 44.9004C44.0852 45.8848 44.222 47.4297 45.4388 48.332C45.8079 48.6055 45.9856 48.6191 49.4993 48.6191C53.013 48.6191 53.1907 48.6055 53.5599 48.332C54.8997 47.334 54.8997 45.666 53.5599 44.668C53.1907 44.3945 52.9856 44.3809 49.6634 44.3535C47.5169 44.3398 46.013 44.3809 45.8079 44.4629Z" fill="#131936"/>
</svg>
