<svg width="70" height="70" viewBox="0 0 70 70" fill="none" xmlns="http://www.w3.org/2000/svg">
<path d="M21.4785 0.150391C18.375 0.751953 16.1328 3.95117 16.6523 7.05469C17.0762 9.65234 19.0449 11.6895 21.5879 12.168C21.998 12.2363 23.8574 12.3047 25.7441 12.3047H29.1621L29.0664 12.7422C28.7246 14.3418 28.8613 15.6953 29.5039 17.0762C29.791 17.6914 30.4883 18.4844 33.1953 21.2188L36.5449 24.582L35.7656 25.457L34.9727 26.332L33.9336 25.293C32.0742 23.4473 30.4336 22.7637 27.8906 22.7637C26.1133 22.7637 25.0605 23.0371 23.584 23.8574C19.4141 26.1953 17.582 31.9922 19.5645 36.5996L19.8105 37.1875H15.9551H12.0996L11.6348 36.2988C10.8691 34.8086 9.25586 33.6055 7.54688 33.2363C7.15039 33.1543 5.66016 33.0859 4.22461 33.0859C1.2168 33.0859 0.765625 33.209 0.273438 34.1797C0 34.6992 0 34.959 0 47.4414C0 59.9238 0 60.1836 0.273438 60.7031C0.765625 61.6738 1.2168 61.7969 4.22461 61.7969C5.66016 61.7969 7.15039 61.7285 7.54688 61.6465C9.21484 61.291 10.8418 60.0879 11.6074 58.6523L12.0586 57.8184L12.6191 57.9004C14.1094 58.1602 16.1055 58.9805 17.4863 59.9102C17.8281 60.1426 19.8105 62.002 21.875 64.0527C25.7031 67.8262 26.5645 68.5234 28.1504 69.1934C30.0234 69.9727 30.3926 70 39.416 70C44.4609 70 47.9609 69.9453 48.4121 69.8633C50.9551 69.3848 52.9238 67.3477 53.3477 64.75C53.8672 61.5918 51.625 58.4473 48.4121 57.832C48.002 57.7637 46.1426 57.6953 44.2559 57.6953H40.8516L40.9336 57.2441C41.4668 54.7422 40.9199 52.9785 38.9785 50.9551C38.3223 50.2852 37.8848 49.7109 37.9531 49.6426C38.0215 49.5879 39.457 48.3438 41.1523 46.8809C48.4121 40.6328 50.5039 37.8027 51.2012 33.3184L51.2832 32.8125H54.5918H57.9004L58.3652 33.7012C59.1309 35.1914 60.7441 36.3945 62.4531 36.7637C62.8496 36.8457 64.3398 36.9141 65.7754 36.9141C68.7832 36.9141 69.2344 36.791 69.7266 35.8203C70 35.3008 70 35.041 70 22.5586C70 10.0762 70 9.81641 69.7266 9.29688C69.2344 8.32617 68.7832 8.20312 65.7754 8.20312C64.3398 8.20312 62.8496 8.27148 62.4531 8.35352C60.7852 8.70898 59.1582 9.91211 58.3926 11.3477L57.9414 12.1816L57.3809 12.0996C55.8906 11.8398 53.8945 11.0195 52.5137 10.0898C52.1719 9.85742 50.1895 7.99805 48.125 5.94727C44.2969 2.17383 43.4355 1.47656 41.8496 0.806641C39.9629 0.0273438 39.6211 0 30.4609 0.0136719C25.8535 0.0273438 21.8066 0.0820312 21.4785 0.150391ZM39.7168 4.38867C41.0293 4.86719 41.5898 5.33203 45.2539 8.94141C47.6055 11.252 49.4238 12.9199 50.0801 13.3711C52.0625 14.7383 54.5098 15.7637 56.6562 16.1465L57.5586 16.2969V22.5039V28.7109H53.0605C50.5996 28.7109 48.2344 28.6426 47.8379 28.5742C47.4277 28.4922 46.7031 28.2461 46.2109 28C45.418 27.6309 44.666 26.9199 39.5254 21.8203C36.3398 18.6484 33.5645 15.791 33.3457 15.4629C32.8672 14.7246 32.8398 14.1094 33.2363 13.3984C33.7695 12.4414 34.9316 12.0586 35.8613 12.5234C36.1074 12.6465 38.3359 14.7656 40.8105 17.2266C45.582 21.9707 45.6367 22.0117 46.6895 21.8203C47.9336 21.5879 48.6719 20.0293 48.0703 18.8945C47.9609 18.6895 45.7871 16.4473 43.2441 13.918C39.1289 9.81641 38.5273 9.26953 37.7344 8.90039C37.2422 8.66797 36.5176 8.42188 36.1074 8.33984C35.6699 8.25781 32.7031 8.20312 28.8203 8.20312C22.5312 8.20312 22.2578 8.18945 21.7383 7.92969C21.123 7.61523 20.6445 6.83594 20.6445 6.15234C20.6445 5.49609 21.123 4.68945 21.7109 4.375C22.2031 4.11523 22.4492 4.10156 30.6934 4.14258C37.7617 4.18359 39.2656 4.21094 39.7168 4.38867ZM65.8984 22.5586V32.8125H64.5996C63 32.8125 62.3574 32.5527 61.9336 31.7188C61.6738 31.1992 61.6602 30.9258 61.6602 22.5586C61.6602 14.1914 61.6738 13.918 61.9336 13.3984C62.3574 12.5645 62.959 12.3184 64.5723 12.3047H65.8984V22.5586ZM29.7227 27.207C31.0078 27.8223 32.2656 29.3809 32.9355 31.1719C33.4551 32.5527 34.4121 33.168 35.5469 32.8262C36.2988 32.6074 36.668 32.1426 37.2559 30.7344C37.7754 29.5039 38.7734 28 39.2656 27.7402C39.498 27.6172 39.7305 27.7812 41.0566 29.0801C41.9043 29.9004 42.8887 30.7754 43.2441 31.0215C44.0645 31.582 45.4316 32.1973 46.293 32.416C46.6621 32.498 47.0039 32.6074 47.0586 32.6621C47.1953 32.7988 46.9082 34.1523 46.5664 34.9316C45.5957 37.1055 43.2168 39.6895 38.2949 43.9551C36.5586 45.459 35.0684 46.7031 35 46.7305C34.9316 46.7578 33.127 45.0625 31.0078 42.9707C28.1504 40.168 26.9062 39.0332 26.25 38.6504C24.7734 37.8027 23.2832 35.4922 22.9551 33.5508C22.6543 31.8281 23.2285 29.8047 24.3633 28.5195C25.0469 27.7266 25.5254 27.3848 26.4277 27.0566C27.3848 26.7012 28.793 26.7695 29.7227 27.207ZM7.24609 37.4609C7.60156 37.6387 7.88867 37.9258 8.06641 38.2812C8.32617 38.8008 8.33984 39.0742 8.33984 47.4414C8.33984 55.8086 8.32617 56.082 8.06641 56.6016C7.64258 57.4355 7 57.6953 5.40039 57.6953H4.10156V47.4414V37.1875H5.40039C6.43945 37.1875 6.82227 37.2422 7.24609 37.4609ZM22.1621 41.4258C22.5723 41.5078 23.2969 41.7539 23.7891 42C24.582 42.3691 25.334 43.0801 30.4746 48.1797C33.6602 51.3516 36.4355 54.209 36.6543 54.5371C37.1328 55.2754 37.1602 55.8906 36.7637 56.6016C36.2305 57.5586 35.0684 57.9414 34.1387 57.4766C33.8926 57.3535 31.6777 55.2344 29.1895 52.7734C24.418 48.0293 24.3633 47.9883 23.3105 48.1797C22.0664 48.4121 21.3281 49.9707 21.9297 51.1055C22.0391 51.3105 24.2129 53.5527 26.7559 56.082C30.8711 60.1836 31.4727 60.7305 32.2656 61.0996C32.7578 61.332 33.4824 61.5781 33.8926 61.6602C34.3301 61.7422 37.2969 61.7969 41.1797 61.7969C47.4688 61.7969 47.7422 61.8105 48.2617 62.0703C48.877 62.3848 49.3555 63.1641 49.3555 63.8477C49.3555 64.5312 48.877 65.3105 48.248 65.625C47.7148 65.9121 47.5508 65.9121 39.2656 65.8574C30.2012 65.8164 30.543 65.8438 29.1211 65.0918C28.7383 64.8867 27.043 63.3281 24.7461 61.0586C22.3945 58.748 20.5762 57.0801 19.9199 56.6289C17.9375 55.2617 15.4902 54.2363 13.3438 53.8535L12.4414 53.7031V47.4961V41.2891H16.9395C19.4004 41.2891 21.7656 41.3574 22.1621 41.4258Z" fill="white"/>
</svg>
